<svg width="24" height="24" viewBox="0 0 24 24" fill="none" xmlns="http://www.w3.org/2000/svg">
<path d="M12.1162 23.2646C10.8389 23.2646 9.62011 23.0684 8.45996 22.6758C7.30566 22.2832 6.24511 21.7324 5.27832 21.0234C4.31152 20.3145 3.47363 19.4766 2.76464 18.5098C2.05566 17.543 1.50488 16.4824 1.1123 15.3281C0.719723 14.168 0.523434 12.9492 0.523434 11.6719C0.523434 10.3887 0.719723 9.16992 1.1123 8.01562C1.50488 6.85547 2.05566 5.79492 2.76464 4.83398C3.47363 3.86719 4.31152 3.0293 5.27832 2.32031C6.24511 1.60547 7.30566 1.05176 8.45996 0.65918C9.62011 0.266602 10.8389 0.0703125 12.1162 0.0703125C13.3994 0.0703125 14.6182 0.266602 15.7725 0.65918C16.9326 1.05176 17.9932 1.60547 18.9541 2.32031C19.9209 3.0293 20.7588 3.86719 21.4678 4.83398C22.1826 5.79492 22.7363 6.85547 23.1289 8.01562C23.5215 9.16992 23.7178 10.3887 23.7178 11.6719C23.7178 12.9492 23.5215 14.168 23.1289 15.3281C22.7363 16.4824 22.1826 17.543 21.4678 18.5098C20.7588 19.4766 19.9209 20.3145 18.9541 21.0234C17.9932 21.7324 16.9326 22.2832 15.7725 22.6758C14.6182 23.0684 13.3994 23.2646 12.1162 23.2646ZM12.125 18.1055C12.1953 18.1055 12.2656 18.1055 12.3359 18.1055C12.4062 18.1055 12.4736 18.0996 12.5381 18.0879L12.8545 18.6943C12.9775 18.9053 13.1592 18.9932 13.3994 18.958C13.6572 18.9111 13.8008 18.7646 13.8301 18.5186L13.9092 17.8506C14.0498 17.8154 14.1846 17.7744 14.3135 17.7275C14.4482 17.6748 14.583 17.6191 14.7178 17.5605L15.2187 18.0176C15.3945 18.1816 15.5937 18.2021 15.8164 18.0791C16.0332 17.9502 16.1152 17.7656 16.0625 17.5254L15.9131 16.8574C16.0244 16.7812 16.1357 16.6963 16.2471 16.6025C16.3643 16.5088 16.4727 16.415 16.5723 16.3213L17.2051 16.5762C17.4336 16.6699 17.6269 16.6201 17.7852 16.4268C17.8613 16.3389 17.9023 16.2393 17.9082 16.1279C17.9199 16.0166 17.8965 15.9141 17.8379 15.8203L17.46 15.249C17.542 15.1377 17.6182 15.0205 17.6885 14.8975C17.7646 14.7744 17.835 14.6455 17.8994 14.5107L18.5674 14.5371C18.8252 14.5488 18.9922 14.4375 19.0684 14.2031C19.1504 13.9688 19.0947 13.7725 18.9014 13.6143L18.3652 13.2012C18.4004 13.0664 18.4297 12.9287 18.4531 12.7881C18.4766 12.6475 18.4941 12.5068 18.5059 12.3662L19.1562 12.1553C19.3906 12.0791 19.5078 11.918 19.5078 11.6719C19.5078 11.4141 19.3906 11.2529 19.1562 11.1885L18.5059 10.9775C18.4941 10.8369 18.4766 10.6963 18.4531 10.5557C18.4297 10.415 18.4004 10.2744 18.3652 10.1338L18.9102 9.72949C19.0801 9.57129 19.1357 9.37793 19.0771 9.14941C19.042 9.03809 18.9775 8.9502 18.8838 8.88574C18.7959 8.82129 18.6904 8.78906 18.5674 8.78906L17.8994 8.83301C17.7705 8.58691 17.6269 8.33789 17.4687 8.08594L17.8379 7.53223C17.9551 7.31543 17.9463 7.11328 17.8115 6.92578C17.7236 6.83203 17.6269 6.77344 17.5215 6.75C17.416 6.7207 17.3047 6.72363 17.1875 6.75879L16.5811 7.03125C16.4756 6.93164 16.3672 6.83789 16.2559 6.75C16.1445 6.65625 16.0332 6.56543 15.9219 6.47754L16.0713 5.82715C16.1064 5.58105 16.0244 5.39355 15.8252 5.26465C15.7256 5.21191 15.6201 5.18848 15.5088 5.19434C15.3975 5.2002 15.2978 5.24414 15.21 5.32617L14.7266 5.7832C14.5918 5.72461 14.457 5.66895 14.3223 5.61621C14.1934 5.56348 14.0557 5.52246 13.9092 5.49316L13.8389 4.8252C13.792 4.58496 13.6514 4.43848 13.417 4.38574C13.2939 4.36816 13.1855 4.37988 13.0918 4.4209C12.998 4.46191 12.9189 4.53809 12.8545 4.64941L12.5557 5.24707C12.4853 5.24121 12.4121 5.23828 12.3359 5.23828C12.2656 5.23828 12.1953 5.23828 12.125 5.23828C12.0488 5.23828 11.9756 5.23828 11.9053 5.23828C11.835 5.23828 11.7646 5.24121 11.6943 5.24707L11.3867 4.64941C11.2695 4.43848 11.0879 4.35059 10.8418 4.38574C10.584 4.43262 10.4404 4.5791 10.4111 4.8252L10.332 5.49316C10.1914 5.52832 10.0537 5.57227 9.91894 5.625C9.78418 5.67187 9.64941 5.72461 9.51464 5.7832L9.04004 5.32617C8.85254 5.16211 8.65039 5.13867 8.43359 5.25586C8.20507 5.39062 8.11718 5.57813 8.16992 5.81836L8.32812 6.47754C8.08789 6.64746 7.86816 6.8291 7.66894 7.02246L7.04492 6.76758C6.8164 6.67383 6.62011 6.72363 6.45605 6.91699C6.37988 6.99902 6.33593 7.0957 6.32421 7.20703C6.31836 7.31836 6.34765 7.42383 6.41211 7.52344L6.77246 8.09473C6.69629 8.21191 6.62011 8.33203 6.54394 8.45508C6.47363 8.57227 6.40332 8.69824 6.333 8.83301L5.67382 8.79785C5.41601 8.79199 5.24609 8.90332 5.16406 9.13184C5.08789 9.37207 5.14355 9.57129 5.33105 9.72949L5.86718 10.1338C5.80859 10.4092 5.76171 10.6904 5.72656 10.9775L5.07617 11.1885C4.84179 11.2529 4.72461 11.4141 4.72461 11.6719C4.72461 11.918 4.84179 12.0791 5.07617 12.1553L5.72656 12.3662C5.74414 12.5068 5.76464 12.6475 5.78808 12.7881C5.81152 12.9287 5.83789 13.0664 5.86718 13.2012L5.33105 13.6143C5.13769 13.7725 5.08203 13.9658 5.16406 14.1943C5.20507 14.2998 5.26953 14.3877 5.35742 14.458C5.45117 14.5225 5.55957 14.5518 5.68261 14.5459L6.333 14.502C6.40332 14.625 6.47363 14.751 6.54394 14.8799C6.62011 15.0088 6.69921 15.1318 6.78125 15.249L6.40332 15.8203C6.26855 16.0254 6.28027 16.2217 6.43847 16.4092C6.62011 16.6084 6.82226 16.6641 7.04492 16.5762L7.66015 16.3037C7.76562 16.4033 7.87109 16.5029 7.97656 16.6025C8.08789 16.6963 8.20507 16.7812 8.32812 16.8574L8.16992 17.5254C8.11718 17.7656 8.19629 17.9502 8.40722 18.0791C8.6416 18.2021 8.84961 18.1816 9.03125 18.0176L9.51464 17.5518C9.64941 17.6104 9.78125 17.666 9.91015 17.7188C10.0449 17.7715 10.1826 17.8154 10.3232 17.8506L10.4111 18.5186C10.4404 18.7588 10.5781 18.9053 10.8242 18.958C11.0762 18.9932 11.2637 18.9023 11.3867 18.6855L11.6943 18.0879C11.7588 18.0996 11.8262 18.1055 11.8965 18.1055C11.9727 18.1055 12.0488 18.1055 12.125 18.1055ZM10.0068 6.93457C10.3232 6.78809 10.6602 6.67383 11.0176 6.5918C11.3809 6.50977 11.75 6.46875 12.125 6.46875C12.793 6.46875 13.4199 6.58887 14.0059 6.8291C14.5977 7.06348 15.125 7.3916 15.5879 7.81348C16.0566 8.22949 16.4375 8.71875 16.7305 9.28125C17.0234 9.83789 17.2051 10.4414 17.2754 11.0918H13.8477C13.7305 10.7285 13.5137 10.4297 13.1973 10.1953C12.8809 9.95508 12.5234 9.83496 12.125 9.83496C12.0019 9.83496 11.873 9.84961 11.7383 9.87891L10.0068 6.93457ZM6.92187 11.6719C6.92187 10.8164 7.1123 10.0283 7.49316 9.30762C7.87988 8.58105 8.38671 7.98047 9.01367 7.50586L10.7539 10.459C10.4434 10.8047 10.2881 11.209 10.2881 11.6719C10.2881 12.1406 10.4463 12.5449 10.7627 12.8848L8.9873 15.8027C8.35449 15.3281 7.85058 14.7334 7.47558 14.0186C7.10644 13.2979 6.92187 12.5156 6.92187 11.6719ZM9.96289 16.3916L11.7471 13.4648C11.8701 13.4883 11.9961 13.5 12.125 13.5C12.5293 13.5 12.8896 13.3799 13.2061 13.1396C13.5225 12.8994 13.7422 12.5977 13.8652 12.2344H17.2754C17.2109 12.8789 17.0322 13.4824 16.7393 14.0449C16.4463 14.6074 16.0654 15.0996 15.5967 15.5215C15.1338 15.9434 14.6064 16.2744 14.0146 16.5146C13.4228 16.749 12.793 16.8662 12.125 16.8662C11.3633 16.8662 10.6426 16.708 9.96289 16.3916ZM11.4043 11.6719C11.4043 11.4727 11.4717 11.3027 11.6064 11.1621C11.7471 11.0215 11.9199 10.9512 12.125 10.9512C12.3184 10.9512 12.4853 11.0215 12.626 11.1621C12.7666 11.3027 12.8369 11.4727 12.8369 11.6719C12.8369 11.8652 12.7666 12.0322 12.626 12.1729C12.4853 12.3135 12.3184 12.3838 12.125 12.3838C11.9199 12.3838 11.7471 12.3135 11.6064 12.1729C11.4717 12.0322 11.4043 11.8652 11.4043 11.6719Z" fill="#FF284F"/>
</svg>
