<svg width="23" height="22" viewBox="0 0 23 22" fill="none" xmlns="http://www.w3.org/2000/svg">
<path d="M11.3667 21.9556C10.1603 21.9556 9.00927 21.7702 7.91357 21.3994C6.8234 21.0286 5.82177 20.5085 4.90869 19.8389C3.9956 19.1693 3.20426 18.3779 2.53466 17.4648C1.86507 16.5518 1.34489 15.5501 0.974117 14.46C0.603349 13.3643 0.417965 12.2132 0.417965 11.0068C0.417965 9.79492 0.603349 8.64388 0.974117 7.55371C1.34489 6.45801 1.86507 5.45638 2.53466 4.54883C3.20426 3.63574 3.9956 2.8444 4.90869 2.1748C5.82177 1.49967 6.8234 0.976725 7.91357 0.605957C9.00927 0.235189 10.1603 0.0498047 11.3667 0.0498047C12.5786 0.0498047 13.7297 0.235189 14.8198 0.605957C15.9155 0.976725 16.9172 1.49967 17.8247 2.1748C18.7378 2.8444 19.5291 3.63574 20.1987 4.54883C20.8739 5.45638 21.3968 6.45801 21.7676 7.55371C22.1383 8.64388 22.3237 9.79492 22.3237 11.0068C22.3237 12.2132 22.1383 13.3643 21.7676 14.46C21.3968 15.5501 20.8739 16.5518 20.1987 17.4648C19.5291 18.3779 18.7378 19.1693 17.8247 19.8389C16.9172 20.5085 15.9155 21.0286 14.8198 21.3994C13.7297 21.7702 12.5786 21.9556 11.3667 21.9556ZM7.55664 7.82764C7.55664 8.25374 7.60367 8.63281 7.69775 8.96484C7.79736 9.29688 7.9191 9.62337 8.06298 9.94434C8.2124 10.2653 8.36458 10.6195 8.51953 11.0068C8.67448 11.3942 8.81282 11.8535 8.93457 12.3848C9.05631 12.9105 9.13655 13.5496 9.17529 14.3022C9.18082 14.4185 9.22233 14.5125 9.2998 14.5845C9.37727 14.6564 9.47412 14.6924 9.59033 14.6924H13.1099C13.2371 14.6924 13.3395 14.6564 13.417 14.5845C13.4945 14.5125 13.5387 14.4185 13.5498 14.3022C13.583 13.5496 13.6605 12.9105 13.7822 12.3848C13.904 11.859 14.0423 11.4053 14.1973 11.0234C14.3522 10.6416 14.5016 10.2902 14.6455 9.96924C14.7949 9.64827 14.9194 9.32454 15.019 8.99805C15.1186 8.66602 15.1685 8.28971 15.1685 7.86914C15.1685 7.21615 14.9969 6.62402 14.6538 6.09277C14.3162 5.56152 13.8569 5.13818 13.2759 4.82275C12.7004 4.50732 12.0612 4.34961 11.3584 4.34961C10.6501 4.34961 10.0081 4.50456 9.43261 4.81445C8.85709 5.11882 8.40055 5.53385 8.06298 6.05957C7.72542 6.58529 7.55664 7.17464 7.55664 7.82764ZM9.65673 16.1201H13.0684C13.179 16.1201 13.2759 16.0786 13.3589 15.9956C13.4474 15.9126 13.4917 15.8158 13.4917 15.7051C13.4917 15.5889 13.4474 15.4893 13.3589 15.4062C13.2759 15.3232 13.179 15.2817 13.0684 15.2817H9.65673C9.54052 15.2817 9.44091 15.3232 9.35791 15.4062C9.2749 15.4893 9.23339 15.5889 9.23339 15.7051C9.23339 15.8158 9.2749 15.9126 9.35791 15.9956C9.44091 16.0786 9.54052 16.1201 9.65673 16.1201ZM11.3667 17.6475C11.7651 17.6475 12.0999 17.5589 12.3711 17.3818C12.6478 17.2103 12.8 16.9862 12.8276 16.7095H9.88916C9.91683 16.9862 10.069 17.2103 10.3457 17.3818C10.6224 17.5589 10.9627 17.6475 11.3667 17.6475Z" fill="#FF284F"/>
</svg>
