<svg width="23" height="22" viewBox="0 0 23 22" fill="none" xmlns="http://www.w3.org/2000/svg">
<path d="M11.8667 21.9722C10.6603 21.9722 9.50927 21.7868 8.41357 21.416C7.3234 21.0452 6.32177 20.5251 5.40869 19.8555C4.4956 19.1859 3.70426 18.3945 3.03466 17.4814C2.36507 16.5684 1.84489 15.5667 1.47412 14.4766C1.10335 13.3809 0.917965 12.2298 0.917965 11.0234C0.917965 9.81152 1.10335 8.66048 1.47412 7.57031C1.84489 6.47461 2.36507 5.47298 3.03466 4.56543C3.70426 3.65234 4.4956 2.861 5.40869 2.19141C6.32177 1.51628 7.3234 0.993327 8.41357 0.622559C9.50927 0.25179 10.6603 0.0664062 11.8667 0.0664062C13.0786 0.0664062 14.2297 0.25179 15.3198 0.622559C16.4155 0.993327 17.4172 1.51628 18.3247 2.19141C19.2378 2.861 20.0291 3.65234 20.6987 4.56543C21.3739 5.47298 21.8968 6.47461 22.2676 7.57031C22.6383 8.66048 22.8237 9.81152 22.8237 11.0234C22.8237 12.2298 22.6383 13.3809 22.2676 14.4766C21.8968 15.5667 21.3739 16.5684 20.6987 17.4814C20.0291 18.3945 19.2378 19.1859 18.3247 19.8555C17.4172 20.5251 16.4155 21.0452 15.3198 21.416C14.2297 21.7868 13.0786 21.9722 11.8667 21.9722ZM7.40918 15.9873H16.457C16.9495 15.9873 17.3314 15.849 17.6025 15.5723C17.8792 15.29 18.0176 14.8805 18.0176 14.3438V9.81152H5.73242V14.3438C5.73242 14.8805 5.87353 15.29 6.15576 15.5723C6.44352 15.849 6.86132 15.9873 7.40918 15.9873ZM5.73242 8.95654H18.0176V8.4585C18.0176 7.92171 17.8737 7.51221 17.5859 7.22998C17.3037 6.94775 16.8859 6.80664 16.3325 6.80664H11.1943C10.984 6.80664 10.8153 6.78174 10.688 6.73193C10.5662 6.6766 10.4334 6.59082 10.2895 6.47461L9.98242 6.22559C9.78873 6.08171 9.61165 5.9821 9.45117 5.92676C9.29622 5.86589 9.08317 5.83545 8.81201 5.83545H7.22656C6.75065 5.83545 6.38265 5.97103 6.12255 6.24219C5.86246 6.50781 5.73242 6.90072 5.73242 7.4209V8.95654Z" fill="#FF284F"/>
</svg>
