<svg width="23" height="22" viewBox="0 0 23 22" fill="none" xmlns="http://www.w3.org/2000/svg">
<path d="M11.6167 21.8145C10.4269 21.8145 9.29248 21.6318 8.21338 21.2666C7.13427 20.9014 6.14371 20.3867 5.2417 19.7227C4.33968 19.0641 3.55664 18.2839 2.89257 17.3818C2.23405 16.4798 1.72216 15.4893 1.35693 14.4102C0.991695 13.3311 0.809078 12.1966 0.809078 11.0068C0.809078 9.81152 0.991695 8.67432 1.35693 7.59521C1.72216 6.51611 2.23405 5.52832 2.89257 4.63184C3.55664 3.72982 4.33968 2.94678 5.2417 2.28271C6.14371 1.61865 7.13427 1.104 8.21338 0.73877C9.29248 0.373535 10.4269 0.190918 11.6167 0.190918C12.812 0.190918 13.9492 0.373535 15.0283 0.73877C16.1074 1.104 17.0952 1.61865 17.9917 2.28271C18.8937 2.94678 19.6768 3.72982 20.3408 4.63184C21.0049 5.52832 21.5195 6.51611 21.8848 7.59521C22.25 8.67432 22.4326 9.81152 22.4326 11.0068C22.4326 12.1966 22.25 13.3311 21.8848 14.4102C21.5195 15.4893 21.0049 16.4798 20.3408 17.3818C19.6768 18.2839 18.8937 19.0641 17.9917 19.7227C17.0952 20.3867 16.1074 20.9014 15.0283 21.2666C13.9492 21.6318 12.812 21.8145 11.6167 21.8145ZM9.06836 16.0952H16.5308C17.0177 16.0952 17.383 15.9762 17.6265 15.7383C17.87 15.4948 17.9917 15.1296 17.9917 14.6426V9.45459C17.9917 8.97868 17.87 8.61898 17.6265 8.37549C17.383 8.132 17.0177 8.01025 16.5308 8.01025H9.06836C8.58138 8.01025 8.21614 8.132 7.97265 8.37549C7.72916 8.61898 7.60742 8.97868 7.60742 9.45459V14.6426C7.60742 15.1296 7.72916 15.4948 7.97265 15.7383C8.21614 15.9762 8.58138 16.0952 9.06836 16.0952ZM7.01806 9.39648C7.01806 8.74349 7.18408 8.24821 7.51611 7.91064C7.85367 7.57308 8.35172 7.4043 9.01025 7.4043L15.6011 7.4126V7.21338C15.6011 6.73193 15.4793 6.36947 15.2358 6.12598C14.9979 5.88249 14.6354 5.76074 14.1484 5.76074H6.68603C6.19905 5.76074 5.83382 5.88249 5.59033 6.12598C5.34684 6.36393 5.22509 6.7264 5.22509 7.21338V12.3765C5.22509 12.8524 5.34684 13.2121 5.59033 13.4556C5.83382 13.6991 6.19905 13.8208 6.68603 13.8208H7.01806V9.39648Z" fill="#FF284F"/>
</svg>
